<svg width="24" height="22" viewBox="0 0 24 22" fill="none" xmlns="http://www.w3.org/2000/svg">
<path d="M11.5623 4.29623L11.9998 5.08662L12.4372 4.29623C12.9172 3.42893 13.6176 2.70366 14.4676 2.19365C15.3135 1.68617 16.2776 1.4097 17.2636 1.39179C18.8464 1.46444 20.3369 2.15856 21.4112 3.32375C22.4888 4.49255 23.0601 6.04035 23.0001 7.629L22.9998 7.63842V7.64785C22.9998 9.66208 21.9328 11.8325 20.3278 13.9407C18.7318 16.0371 16.6545 18.0065 14.7451 19.6081L14.7447 19.6084C13.976 20.2544 13.0039 20.6086 11.9998 20.6086C10.9956 20.6086 10.0235 20.2544 9.25476 19.6084L9.25442 19.6081C7.34506 18.0065 5.2677 16.0371 3.67172 13.9407C2.06674 11.8325 0.999757 9.66208 0.999757 7.64785V7.63842L0.999401 7.629C0.939455 6.04035 1.51069 4.49255 2.58832 3.32375C3.6626 2.15856 5.15309 1.46444 6.73587 1.39179C7.72191 1.4097 8.68606 1.68617 9.53186 2.19365C10.3819 2.70366 11.0823 3.42893 11.5623 4.29623Z" fill="#FF141D" stroke="black"/>
</svg>
